<!DOCTYPE svg PUBLIC "-//W3C//DTD SVG 1.1//EN" "http://www.w3.org/Graphics/SVG/1.1/DTD/svg11.dtd">
<!-- Uploaded to: SVG Repo, www.svgrepo.com, Transformed by: SVG Repo Mixer Tools -->
<svg fill="#C51104" version="1.1" id="Capa_1" xmlns="http://www.w3.org/2000/svg" xmlns:xlink="http://www.w3.org/1999/xlink" width="800px" height="800px" viewBox="0 0 334.824 334.824" xml:space="preserve">
<g id="SVGRepo_bgCarrier" stroke-width="0"/>
<g id="SVGRepo_tracerCarrier" stroke-linecap="round" stroke-linejoin="round"/>
<g id="SVGRepo_iconCarrier"> <g> <g id="Artwork_70_"> <g id="Layer_5_70_"> <g> <path d="M325.34,152.064c0-4.775-3.037-2.77-3.037-2.77s-83.494,56.299-114.115,76.625c-1.178,0.782-2.627,1.731-4.277,1.731 c-1.148,0-55.882,0.167-73.253,0.167c-2.774,0-3.409-0.324-4.288-0.901c-36.756-24.141-93.324-61.806-114.142-76.403 c-2.439-1.711-2.864,0.956-2.864,0.956v161.391c0,12.081,9.884,21.965,21.964,21.965h272.169 c12.08,0,21.965-9.884,21.965-21.965C325.459,312.858,325.34,197.039,325.34,152.064z"/> <path d="M316.012,122.278c-2.252-1.549-116.736-99.082-143.203-119.425c-3.465-2.661-3.713-2.858-5.421-2.853 c-1.859,0.007-2.126,0.344-5.867,3.259C134.285,24.484,21.458,121.982,20.128,123.312c-4.824,4.825-1.764,7.941,1.36,10.131 c9.034,6.335,22.458,15.087,41.107,27.376c23.502,15.49,46.713,31.247,67.093,44.894c2.119,1.419,4.044,1.979,5.871,1.979 c0.841,0,50.423,0,62.648,0c2.496,0,4.047-1.153,5.377-2.046c28.557-19.165,112.332-75.417,112.332-75.417 C317.299,129.315,320.143,125.119,316.012,122.278z M135.167,111.311c-1.414,7.219-11.988,27.33-15.479,28.759 c-3.418,1.396-25.221-5.533-31.243-9.655c-3.016-2.063-5.608-4.639-7.064-8.822c-2.576-7.41,0.902-15.821,8.161-18.788 c7.464-3.053,15.066,3.132,16.004,2.749c1.072-0.438,2.349-10.254,9.49-13.175c7.261-2.969,15.637,0.596,18.989,7.685 C135.919,104.073,135.872,107.712,135.167,111.311z M164.127,86.798c-2.955-1.294-11.875-19.188-12.957-25.474 c-0.54-3.146-0.503-6.341,1.236-9.802c3.079-6.125,10.473-9.06,16.753-6.313c6.455,2.824,7.204,11.357,8.015,11.712 c0.928,0.406,7.86-4.768,14.039-2.063c6.28,2.747,9.144,10.169,6.734,16.588c-1.359,3.625-3.674,5.811-6.359,7.559 C186.199,82.512,167.149,88.12,164.127,86.798z M236.061,150.744c-2.158,5.01-5.562,7.932-9.463,10.21 c-7.824,4.57-35.022,11.177-39.182,9.112c-4.074-2.021-15.421-27.816-16.516-36.735c-0.549-4.465-0.281-8.963,2.402-13.714 c4.748-8.414,15.355-12.047,24.008-7.754c8.896,4.413,9.369,16.475,10.488,17.031c1.279,0.633,11.387-6.182,19.902-1.958 C236.357,131.23,239.885,141.871,236.061,150.744z"/> </g> </g> </g> </g> </g>
</svg>