<!DOCTYPE svg PUBLIC "-//W3C//DTD SVG 1.1//EN" "http://www.w3.org/Graphics/SVG/1.1/DTD/svg11.dtd">
<!-- Uploaded to: SVG Repo, www.svgrepo.com, Transformed by: SVG Repo Mixer Tools -->
<svg fill="#C51104" version="1.1" id="Capa_1" xmlns="http://www.w3.org/2000/svg" xmlns:xlink="http://www.w3.org/1999/xlink" width="800px" height="800px" viewBox="0 0 331.001 331" xml:space="preserve" stroke="#C51104">
<g id="SVGRepo_bgCarrier" stroke-width="0"/>
<g id="SVGRepo_tracerCarrier" stroke-linecap="round" stroke-linejoin="round"/>
<g id="SVGRepo_iconCarrier"> <g> <g id="Artwork_93_"> <g id="Layer_5_93_"> <g> <path d="M330.876,82.625c0-5-3.182-2.902-3.182-2.902l-103.568,72.965c-0.938,0.75-2.438,1.188-2.395,2.698 c0.252,8.854-2.369,15.546-6.396,21.671c-8.078,12.283-42.854,41.495-50.39,41.495c-7.379,0-42.47-29.317-50.496-41.495 c-4.017-6.098-6.787-11.768-6.51-20.619c0.061-2-2.761-3.41-2.75-3.563C68.594,127.102,25.332,96.661,3,81c-2.555-1.792-3,1-3,1 v189c0,12.65,10.351,23,23,23h285.001c12.65,0,23-10.35,23-23C331.001,271,330.876,129.719,330.876,82.625z"/> <path d="M6,54l110.439,77.5c2.561,1.688,3.782,1.068,4.354,0.66c4.716-3.365,10.423-5.357,16.573-5.357 c16.116,0.001,25.501,17.195,27.525,17.196c2.316,0,12.101-17.196,27.525-17.195c5.83-0.001,11.258,1.79,15.824,4.842 c0.717,0.48,2.51,1.104,5.635-1.146l110.291-77.167c3.584-3.083,2.729-6.504,1.672-7.803C321.613,40.334,315.178,37,308,37H23 C15.166,37,8.217,40.972,4.06,47C3.238,48.193,2,51,6,54z"/> </g> </g> </g> </g> </g>
</svg>