<!DOCTYPE svg PUBLIC "-//W3C//DTD SVG 1.1//EN" "http://www.w3.org/Graphics/SVG/1.1/DTD/svg11.dtd">
<!-- Uploaded to: SVG Repo, www.svgrepo.com, Transformed by: SVG Repo Mixer Tools -->
<svg fill="#ff1a88" version="1.1" id="Capa_1" xmlns="http://www.w3.org/2000/svg" xmlns:xlink="http://www.w3.org/1999/xlink" width="800px" height="800px" viewBox="0 0 449.438 449.438" xml:space="preserve" stroke="#ff1a88">
<g id="SVGRepo_bgCarrier" stroke-width="0"/>
<g id="SVGRepo_tracerCarrier" stroke-linecap="round" stroke-linejoin="round"/>
<g id="SVGRepo_iconCarrier"> <g> <g> <path d="M449.438,192.445h-1.195l-112.475-92.039L223.294,8.367L110.82,100.406L0,192.445V441.07h449.438V192.445z M183.074,88.673c19.899-18.235,42.706,8.147,42.706,8.147h0.162c0,0,22.807-26.383,42.706-8.147 c19.9,18.236,2.486,59.029-42.706,77.275l-1.224,0.153C179.526,147.855,163.165,106.918,183.074,88.673z M137.26,320.143 l-101.209,101.2c-0.938,0.938-2.161,1.396-3.385,1.396s-2.448-0.469-3.385-1.396c-1.865-1.864-1.865-4.896,0-6.761l101.2-101.2 c1.865-1.864,4.896-1.864,6.761,0C139.105,315.247,139.125,318.269,137.26,320.143z M414.572,421.343 c-0.937,0.938-2.161,1.396-3.385,1.396s-2.448-0.469-3.385-1.396l-101.2-101.2c-1.865-1.864-1.865-4.896,0-6.761 c1.864-1.864,4.896-1.864,6.761,0l101.209,101.2C416.438,416.447,416.438,419.479,414.572,421.343z M332.507,280.898 l-109.395,88.453l-109.395-88.453L4.312,192.445h218.79h218.79L332.507,280.898z"/> </g> </g> </g>
</svg>